<svg id="Layer_1" data-name="Layer 1" 
    xmlns="http://www.w3.org/2000/svg" 
    xmlns:xlink="http://www.w3.org/1999/xlink" viewBox="0 0 81.57 32.6">
    <defs>
        <style>.cls-1{fill:url(#linear-gradient);}.cls-2{fill:url(#linear-gradient-2);}.cls-3{fill:url(#linear-gradient-3);}.cls-4{fill:url(#linear-gradient-4);}.cls-5{fill:url(#linear-gradient-5);}.cls-6{fill:url(#linear-gradient-6);}.cls-7{fill:url(#linear-gradient-7);}.cls-8{fill:url(#linear-gradient-8);}.cls-9{fill:url(#linear-gradient-9);}.cls-10{fill:url(#linear-gradient-10);}.cls-11{fill:url(#linear-gradient-11);}.cls-12{fill:url(#linear-gradient-12);}.cls-13{fill:url(#linear-gradient-13);}.cls-14{fill:url(#linear-gradient-14);}.cls-15{fill:url(#linear-gradient-15);}.cls-16{fill:url(#linear-gradient-16);}</style>
        <linearGradient id="linear-gradient" x1="37.4" y1="38.1" x2="37.4" y2="38.1" gradientUnits="userSpaceOnUse">
            <stop offset="0" stop-color="#007fe2"/>
            <stop offset="1" stop-color="#39d3b8"/>
        </linearGradient>
        <linearGradient id="linear-gradient-2" x1="4.51" y1="44.91" x2="86.23" y2="45.11" xlink:href="#linear-gradient"/>
        <linearGradient id="linear-gradient-3" x1="4.51" y1="46.64" x2="86.23" y2="46.84" gradientTransform="matrix(1, 0, 0, -1, 0, 92)" xlink:href="#linear-gradient"/>
        <linearGradient id="linear-gradient-4" x1="4.51" y1="46.66" x2="86.23" y2="46.87" gradientTransform="matrix(1, 0, 0, -1, 0, 92)" xlink:href="#linear-gradient"/>
        <linearGradient id="linear-gradient-5" x1="4.5" y1="49.86" x2="86.22" y2="50.07" gradientTransform="matrix(1, 0, 0, -1, 0, 92)" xlink:href="#linear-gradient"/>
        <linearGradient id="linear-gradient-6" x1="4.52" y1="43.44" x2="86.24" y2="43.64" gradientTransform="matrix(1, 0, 0, -1, 0, 92)" xlink:href="#linear-gradient"/>
        <linearGradient id="linear-gradient-7" x1="4.51" y1="46.65" x2="86.23" y2="46.85" gradientTransform="matrix(1, 0, 0, -1, 0, 92)" xlink:href="#linear-gradient"/>
        <linearGradient id="linear-gradient-8" x1="4.5" y1="50.68" x2="86.22" y2="50.88" xlink:href="#linear-gradient"/>
        <linearGradient id="linear-gradient-9" x1="4.53" y1="38.57" x2="86.25" y2="38.77" xlink:href="#linear-gradient"/>
        <linearGradient id="linear-gradient-10" x1="4.51" y1="44.64" x2="86.23" y2="44.84" xlink:href="#linear-gradient"/>
        <linearGradient id="linear-gradient-11" x1="4.51" y1="44.61" x2="86.23" y2="44.81" xlink:href="#linear-gradient"/>
        <linearGradient id="linear-gradient-12" x1="4.5" y1="48.93" x2="86.22" y2="49.13" xlink:href="#linear-gradient"/>
        <linearGradient id="linear-gradient-13" x1="4.52" y1="40.35" x2="86.24" y2="40.55" xlink:href="#linear-gradient"/>
        <linearGradient id="linear-gradient-14" x1="4.52" y1="40.37" x2="86.24" y2="40.58" xlink:href="#linear-gradient"/>
        <linearGradient id="linear-gradient-15" x1="4.5" y1="48.91" x2="86.22" y2="49.11" xlink:href="#linear-gradient"/>
        <linearGradient id="linear-gradient-16" x1="4.51" y1="44.62" x2="86.23" y2="44.82" xlink:href="#linear-gradient"/>
    </defs>
    <title>DocOps</title>
    <path class="cls-1" d="M37.4,38.1" transform="translate(-5.02 -28.7)"/>
    <path class="cls-2" d="M86.59,45.1A16.38,16.38,0,0,1,70.13,61.3a16.88,16.88,0,0,1-9.63-3.07l-.19-.13L60.2,58h0l-.69-.57C57.88,56.09,53.66,52,53.66,52v8.5a.77.77,0,0,1-.73.7c-.32,0-.74-.3-.74-.6,0,0,0-10.43,0-10.5a.35.35,0,0,1,.1-.2c.08-.08,0,0,.11-.1l.18-.15.2-.09c.15-.07.1,0,.25-.06s10.87,0,10.87,0a.78.78,0,0,1,.74.7.71.71,0,0,1-.74.7h-9c.06.08,4.21,4.24,5.84,5.57.15.12.17.13.18.13a15.15,15.15,0,0,0,9,3.1,14.7,14.7,0,1,0,0-29.4,15.15,15.15,0,0,0-9,3.1L31.62,57.57,31,58.1A16.37,16.37,0,0,1,5,45,16.52,16.52,0,0,1,21.48,28.7,18.5,18.5,0,0,1,31,32l.2.17.32.24c.74.55,6.24,5.74,6.24,5.74V29.6a.77.77,0,0,1,.74-.7.71.71,0,0,1,.74.7s0,10.42,0,10.47-.06.08-.11.13l-.41.39c-.09.1-.12.11-.22.11H27.6a.78.78,0,0,1-.74-.7.71.71,0,0,1,.74-.7h9s-5.5-5.27-5.71-5.46l-.41-.34a15.51,15.51,0,0,0-9-3.1A14.55,14.55,0,0,0,6.81,45.1,14.77,14.77,0,0,0,21.59,59.8a14.45,14.45,0,0,0,9-3.1L60.21,32.3l.31-.3A17,17,0,0,1,70,28.9,16.54,16.54,0,0,1,86.59,45.1Z" transform="translate(-5.02 -28.7)"/>
    <path class="cls-3" d="M26.15,41.81l-4.32-4.47-.06-.05,0,0,0,0h-.27l0,0,0,0-.1.1s0,0,0,0l0,0s0,0,0,0v0s0,0,0,.07v4.48a.37.37,0,0,0,.36.37h2a.37.37,0,0,0,.36-.37.36.36,0,0,0-.36-.37H21.93V38.5l3.6,3.73v9.68a.68.68,0,0,1-.67.69h-9a.38.38,0,0,0,0,.75h9a1.42,1.42,0,0,0,1.39-1.44V42.08A.38.38,0,0,0,26.15,41.81Z" transform="translate(-5.02 -28.7)"/>
    <path class="cls-4" d="M19.63,37.6a.36.36,0,0,0-.36-.37H14.82a1.41,1.41,0,0,0-1.39,1.44V53a.36.36,0,1,0,.71,0V38.67a.69.69,0,0,1,.68-.7h4.45A.36.36,0,0,0,19.63,37.6Z" transform="translate(-5.02 -28.7)"/>
    <path class="cls-5" d="M15.84,42.45h3.43a.37.37,0,0,0,.36-.37.36.36,0,0,0-.36-.37H15.84a.36.36,0,0,0-.36.37A.37.37,0,0,0,15.84,42.45Z" transform="translate(-5.02 -28.7)"/>
    <path class="cls-6" d="M23.59,48.13H15.84a.36.36,0,0,0-.36.37.37.37,0,0,0,.36.37h7.75A.37.37,0,0,0,24,48.5.36.36,0,0,0,23.59,48.13Z" transform="translate(-5.02 -28.7)"/>
    <path class="cls-7" d="M23.59,44.92H15.84a.36.36,0,0,0-.36.37.37.37,0,0,0,.36.37h7.75a.37.37,0,0,0,.36-.37A.36.36,0,0,0,23.59,44.92Z" transform="translate(-5.02 -28.7)"/>
    <path class="cls-8" d="M70.56,52.74a.38.38,0,0,1-.38-.38h0v-3a.38.38,0,0,1,.76,0v3a.39.39,0,0,1-.38.38Z" transform="translate(-5.02 -28.7)"/>
    <path class="cls-9" d="M70.56,40.63a.38.38,0,0,1-.38-.38h0v-3a.38.38,0,0,1,.76,0v3a.38.38,0,0,1-.38.38Z" transform="translate(-5.02 -28.7)"/>
    <path class="cls-10" d="M66,45.17H63a.38.38,0,0,1,0-.76h3a.38.38,0,1,1,0,.76Z" transform="translate(-5.02 -28.7)"/>
    <path class="cls-11" d="M78.13,45.17h-3a.38.38,0,1,1,0-.76h3a.38.38,0,1,1,0,.76Z" transform="translate(-5.02 -28.7)"/>
    <path class="cls-12" d="M65.21,50.52a.38.38,0,0,1-.38-.38.45.45,0,0,1,.12-.27l2.14-2.14a.38.38,0,0,1,.53.06.38.38,0,0,1,0,.47l-2.14,2.15A.39.39,0,0,1,65.21,50.52Z" transform="translate(-5.02 -28.7)"/>
    <path class="cls-13" d="M73.77,42a.38.38,0,0,1-.38-.38.39.39,0,0,1,.11-.27l2.14-2.14a.38.38,0,0,1,.53.06.35.35,0,0,1,0,.47L74,41.84A.34.34,0,0,1,73.77,42Z" transform="translate(-5.02 -28.7)"/>
    <path class="cls-14" d="M67.35,42a.36.36,0,0,1-.26-.11l-2.15-2.14a.39.39,0,0,1,.06-.54.38.38,0,0,1,.47,0l2.14,2.15a.37.37,0,0,1,0,.53.36.36,0,0,1-.26.11Z" transform="translate(-5.02 -28.7)"/>
    <path class="cls-15" d="M75.91,50.52a.39.39,0,0,1-.27-.11L73.5,48.26a.38.38,0,0,1,.06-.53.39.39,0,0,1,.48,0l2.14,2.14a.38.38,0,0,1,0,.54.39.39,0,0,1-.27.11Z" transform="translate(-5.02 -28.7)"/>
    <path class="cls-16" d="M70.56,49.71a4.93,4.93,0,1,1,4.92-4.92h0A4.92,4.92,0,0,1,70.56,49.71Zm0-9.08a4.16,4.16,0,1,0,4.16,4.16A4.16,4.16,0,0,0,70.56,40.63Z" transform="translate(-5.02 -28.7)"/>
</svg>